<svg xmlns="http://www.w3.org/2000/svg" xmlns:xlink="http://www.w3.org/1999/xlink" width="500" zoomAndPan="magnify" viewBox="0 0 375 112.499997" height="150" preserveAspectRatio="xMidYMid meet" version="1.0"><defs><g/><clipPath id="6c80956e30"><rect x="0" width="347" y="0" height="108"/></clipPath><clipPath id="3cc75d228d"><path d="M 138.542969 25.769531 L 156.183594 25.769531 L 156.183594 43.410156 L 138.542969 43.410156 Z M 138.542969 25.769531 " clip-rule="nonzero"/></clipPath><clipPath id="9cf3b18e1c"><path d="M 147.363281 25.769531 C 142.492188 25.769531 138.542969 29.71875 138.542969 34.589844 C 138.542969 39.460938 142.492188 43.410156 147.363281 43.410156 C 152.234375 43.410156 156.183594 39.460938 156.183594 34.589844 C 156.183594 29.71875 152.234375 25.769531 147.363281 25.769531 Z M 147.363281 25.769531 " clip-rule="nonzero"/></clipPath><clipPath id="461546c594"><path d="M 0.542969 0.769531 L 18.183594 0.769531 L 18.183594 18.410156 L 0.542969 18.410156 Z M 0.542969 0.769531 " clip-rule="nonzero"/></clipPath><clipPath id="f6f164dfe0"><path d="M 9.363281 0.769531 C 4.492188 0.769531 0.542969 4.71875 0.542969 9.589844 C 0.542969 14.460938 4.492188 18.410156 9.363281 18.410156 C 14.234375 18.410156 18.183594 14.460938 18.183594 9.589844 C 18.183594 4.71875 14.234375 0.769531 9.363281 0.769531 Z M 9.363281 0.769531 " clip-rule="nonzero"/></clipPath><clipPath id="5eb3c74def"><rect x="0" width="19" y="0" height="19"/></clipPath></defs><g transform="matrix(1, 0, 0, 1, 13, 2)"><g clip-path="url(#6c80956e30)"><g fill="#e4e2dd" fill-opacity="1"><g transform="translate(0.492448, 83.80351)"><g><path d="M 16.421875 -53.84375 L 16.421875 -9.75 L 31.34375 -9.75 L 31.34375 0 L 6.15625 0 L 6.15625 -53.84375 Z M 16.421875 -53.84375 "/></g></g></g><g fill="#e4e2dd" fill-opacity="1"><g transform="translate(31.310623, 83.80351)"><g><path d="M 23.921875 1.046875 C 20.023438 1.046875 16.472656 0.109375 13.265625 -1.765625 C 10.066406 -3.640625 7.554688 -6.1875 5.734375 -9.40625 C 3.910156 -12.632812 3 -16.148438 3 -19.953125 C 3 -23.796875 3.945312 -27.316406 5.84375 -30.515625 C 7.75 -33.722656 10.300781 -36.25 13.5 -38.09375 C 16.695312 -39.945312 20.171875 -40.875 23.921875 -40.875 C 27.671875 -40.875 31.144531 -39.945312 34.34375 -38.09375 C 37.550781 -36.25 40.101562 -33.722656 42 -30.515625 C 43.894531 -27.316406 44.84375 -23.796875 44.84375 -19.953125 C 44.84375 -16.148438 43.929688 -12.632812 42.109375 -9.40625 C 40.285156 -6.1875 37.773438 -3.640625 34.578125 -1.765625 C 31.378906 0.109375 27.828125 1.046875 23.921875 1.046875 Z M 23.921875 -8.40625 C 25.921875 -8.40625 27.757812 -8.878906 29.4375 -9.828125 C 31.113281 -10.773438 32.425781 -12.125 33.375 -13.875 C 34.320312 -15.625 34.796875 -17.625 34.796875 -19.875 C 34.796875 -22.125 34.332031 -24.125 33.40625 -25.875 C 32.488281 -27.625 31.203125 -28.984375 29.546875 -29.953125 C 27.898438 -30.929688 26.023438 -31.421875 23.921875 -31.421875 C 21.828125 -31.421875 19.953125 -30.929688 18.296875 -29.953125 C 16.648438 -28.984375 15.363281 -27.625 14.4375 -25.875 C 13.507812 -24.125 13.046875 -22.125 13.046875 -19.875 C 13.046875 -17.625 13.519531 -15.625 14.46875 -13.875 C 15.425781 -12.125 16.738281 -10.773438 18.40625 -9.828125 C 20.082031 -8.878906 21.921875 -8.40625 23.921875 -8.40625 Z M 23.921875 -8.40625 "/></g></g></g><g fill="#e4e2dd" fill-opacity="1"><g transform="translate(76.975624, 83.80351)"><g><path d="M 23.921875 15.53125 C 18.472656 15.53125 14.007812 14.46875 10.53125 12.34375 C 7.0625 10.21875 4.648438 7.078125 3.296875 2.921875 L 14.328125 2.921875 C 15.328125 4.117188 16.585938 4.992188 18.109375 5.546875 C 19.640625 6.097656 21.453125 6.375 23.546875 6.375 C 27.296875 6.375 30.054688 5.546875 31.828125 3.890625 C 33.609375 2.242188 34.5 -0.226562 34.5 -3.53125 L 34.5 -4.953125 C 32.800781 -3.296875 30.988281 -2.054688 29.0625 -1.234375 C 27.132812 -0.410156 24.921875 0 22.421875 0 C 18.867188 0 15.628906 -0.875 12.703125 -2.625 C 9.785156 -4.375 7.488281 -6.8125 5.8125 -9.9375 C 4.132812 -13.0625 3.296875 -16.570312 3.296875 -20.46875 C 3.296875 -24.46875 4.132812 -28.019531 5.8125 -31.125 C 7.488281 -34.226562 9.738281 -36.628906 12.5625 -38.328125 C 15.382812 -40.023438 18.5 -40.875 21.90625 -40.875 C 24.300781 -40.875 26.507812 -40.421875 28.53125 -39.515625 C 30.5625 -38.617188 32.550781 -37.269531 34.5 -35.46875 L 34.5 -39.828125 L 44.46875 -39.828125 L 44.46875 -5.703125 C 44.46875 1.347656 42.789062 6.648438 39.4375 10.203125 C 36.09375 13.753906 30.921875 15.53125 23.921875 15.53125 Z M 24.296875 -9.15625 C 26.347656 -9.15625 28.1875 -9.613281 29.8125 -10.53125 C 31.4375 -11.457031 32.710938 -12.769531 33.640625 -14.46875 C 34.566406 -16.175781 35.03125 -18.128906 35.03125 -20.328125 C 35.03125 -22.472656 34.578125 -24.40625 33.671875 -26.125 C 32.773438 -27.851562 31.5 -29.21875 29.84375 -30.21875 C 28.195312 -31.21875 26.300781 -31.71875 24.15625 -31.71875 C 22 -31.71875 20.109375 -31.207031 18.484375 -30.1875 C 16.859375 -29.164062 15.59375 -27.789062 14.6875 -26.0625 C 13.789062 -24.332031 13.34375 -22.445312 13.34375 -20.40625 C 13.34375 -18.25 13.816406 -16.304688 14.765625 -14.578125 C 15.722656 -12.859375 17.035156 -11.523438 18.703125 -10.578125 C 20.378906 -9.628906 22.242188 -9.15625 24.296875 -9.15625 Z M 24.296875 -9.15625 "/></g></g></g><g fill="#e4e2dd" fill-opacity="1"><g transform="translate(124.290274, 83.80351)"><g><path d="M 10.046875 -43.28125 C 8.847656 -43.28125 7.757812 -43.59375 6.78125 -44.21875 C 5.8125 -44.84375 5.050781 -45.691406 4.5 -46.765625 C 3.945312 -47.835938 3.671875 -48.972656 3.671875 -50.171875 C 3.671875 -51.273438 3.957031 -52.300781 4.53125 -53.25 C 5.113281 -54.195312 5.890625 -54.929688 6.859375 -55.453125 C 7.835938 -55.984375 8.898438 -56.25 10.046875 -56.25 C 11.242188 -56.25 12.316406 -55.945312 13.265625 -55.34375 C 14.222656 -54.75 14.988281 -53.953125 15.5625 -52.953125 C 16.132812 -51.953125 16.421875 -50.851562 16.421875 -49.65625 C 16.421875 -48.5 16.132812 -47.429688 15.5625 -46.453125 C 14.988281 -45.484375 14.210938 -44.710938 13.234375 -44.140625 C 12.265625 -43.566406 11.203125 -43.28125 10.046875 -43.28125 Z M 5.09375 -39.828125 L 15.078125 -39.828125 L 15.078125 0 L 5.09375 0 Z M 5.09375 -39.828125 "/></g></g></g><g fill="#e4e2dd" fill-opacity="1"><g transform="translate(142.211201, 83.80351)"><g><path d="M 0.53125 -31.34375 L 0.53125 -39.828125 L 4.125 -39.828125 L 4.125 -42.21875 C 4.125 -45.820312 4.382812 -48.609375 4.90625 -50.578125 C 5.4375 -52.554688 6.390625 -53.992188 7.765625 -54.890625 C 9.140625 -55.796875 11.148438 -56.25 13.796875 -56.25 C 16.203125 -56.25 18.550781 -55.773438 20.84375 -54.828125 L 20.84375 -47.171875 C 19.394531 -47.617188 18.195312 -47.84375 17.25 -47.84375 C 16.300781 -47.84375 15.613281 -47.71875 15.1875 -47.46875 C 14.757812 -47.21875 14.46875 -46.769531 14.3125 -46.125 C 14.164062 -45.476562 14.09375 -44.425781 14.09375 -42.96875 L 14.09375 -39.828125 L 20.40625 -39.828125 L 20.40625 -31.34375 L 14.09375 -31.34375 L 14.09375 0 L 4.125 0 L 4.125 -31.34375 Z M 0.53125 -31.34375 "/></g></g></g><g fill="#e4e2dd" fill-opacity="1"><g transform="translate(161.031945, 83.80351)"><g><path d="M 23.921875 1.046875 C 20.023438 1.046875 16.472656 0.109375 13.265625 -1.765625 C 10.066406 -3.640625 7.554688 -6.1875 5.734375 -9.40625 C 3.910156 -12.632812 3 -16.148438 3 -19.953125 C 3 -23.796875 3.945312 -27.316406 5.84375 -30.515625 C 7.75 -33.722656 10.300781 -36.25 13.5 -38.09375 C 16.695312 -39.945312 20.171875 -40.875 23.921875 -40.875 C 27.671875 -40.875 31.144531 -39.945312 34.34375 -38.09375 C 37.550781 -36.25 40.101562 -33.722656 42 -30.515625 C 43.894531 -27.316406 44.84375 -23.796875 44.84375 -19.953125 C 44.84375 -16.148438 43.929688 -12.632812 42.109375 -9.40625 C 40.285156 -6.1875 37.773438 -3.640625 34.578125 -1.765625 C 31.378906 0.109375 27.828125 1.046875 23.921875 1.046875 Z M 23.921875 -8.40625 C 25.921875 -8.40625 27.757812 -8.878906 29.4375 -9.828125 C 31.113281 -10.773438 32.425781 -12.125 33.375 -13.875 C 34.320312 -15.625 34.796875 -17.625 34.796875 -19.875 C 34.796875 -22.125 34.332031 -24.125 33.40625 -25.875 C 32.488281 -27.625 31.203125 -28.984375 29.546875 -29.953125 C 27.898438 -30.929688 26.023438 -31.421875 23.921875 -31.421875 C 21.828125 -31.421875 19.953125 -30.929688 18.296875 -29.953125 C 16.648438 -28.984375 15.363281 -27.625 14.4375 -25.875 C 13.507812 -24.125 13.046875 -22.125 13.046875 -19.875 C 13.046875 -17.625 13.519531 -15.625 14.46875 -13.875 C 15.425781 -12.125 16.738281 -10.773438 18.40625 -9.828125 C 20.082031 -8.878906 21.921875 -8.40625 23.921875 -8.40625 Z M 23.921875 -8.40625 "/></g></g></g><g fill="#e4e2dd" fill-opacity="1"><g transform="translate(206.696945, 83.80351)"><g><path d="M 13.65625 -39.828125 L 13.65625 -34.796875 C 14.550781 -36.796875 15.75 -38.304688 17.25 -39.328125 C 18.75 -40.359375 20.347656 -40.875 22.046875 -40.875 C 23.648438 -40.875 25.101562 -40.523438 26.40625 -39.828125 L 23.328125 -31.28125 C 22.222656 -31.820312 21.25 -32.09375 20.40625 -32.09375 C 18.75 -32.09375 17.429688 -31.144531 16.453125 -29.25 C 15.484375 -27.351562 15 -24.503906 15 -20.703125 L 15 0 L 5.03125 0 L 5.03125 -39.828125 Z M 13.65625 -39.828125 "/></g></g></g><g fill="#e4e2dd" fill-opacity="1"><g transform="translate(230.841564, 83.80351)"><g><path d="M 15 -39.828125 L 15 -35.25 C 16.695312 -37.101562 18.609375 -38.503906 20.734375 -39.453125 C 22.859375 -40.398438 25.097656 -40.875 27.453125 -40.875 C 30.003906 -40.875 32.28125 -40.273438 34.28125 -39.078125 C 36.28125 -37.878906 37.878906 -36.101562 39.078125 -33.75 C 41.023438 -36.195312 43.007812 -37.992188 45.03125 -39.140625 C 47.0625 -40.296875 49.523438 -40.875 52.421875 -40.875 C 56.828125 -40.875 60.191406 -39.535156 62.515625 -36.859375 C 64.835938 -34.179688 66 -30.492188 66 -25.796875 L 66 0 L 56.03125 0 L 56.03125 -21.96875 C 56.03125 -28.46875 53.753906 -31.71875 49.203125 -31.71875 C 46.597656 -31.71875 44.507812 -30.691406 42.9375 -28.640625 C 41.363281 -26.597656 40.578125 -23.601562 40.578125 -19.65625 L 40.578125 0 L 30.59375 0 L 30.59375 -19.28125 C 30.59375 -23.425781 30.082031 -26.535156 29.0625 -28.609375 C 28.039062 -30.679688 26.203125 -31.71875 23.546875 -31.71875 C 21.847656 -31.71875 20.359375 -31.253906 19.078125 -30.328125 C 17.804688 -29.410156 16.804688 -28.035156 16.078125 -26.203125 C 15.359375 -24.378906 15 -22.144531 15 -19.5 L 15 0 L 5.03125 0 L 5.03125 -39.828125 Z M 15 -39.828125 "/></g></g></g><g fill="#e4e2dd" fill-opacity="1"><g transform="translate(299.226719, 83.80351)"><g><path d="M 21.96875 1.046875 C 18.625 1.046875 15.488281 0.148438 12.5625 -1.640625 C 9.632812 -3.441406 7.304688 -5.941406 5.578125 -9.140625 C 3.859375 -12.347656 3 -15.925781 3 -19.875 C 3 -23.925781 3.835938 -27.550781 5.515625 -30.75 C 7.191406 -33.945312 9.453125 -36.429688 12.296875 -38.203125 C 15.148438 -39.984375 18.300781 -40.875 21.75 -40.875 C 26.5 -40.875 30.675781 -39.070312 34.28125 -35.46875 L 34.28125 -39.828125 L 44.25 -39.828125 L 44.25 0 L 34.28125 0 L 34.28125 -4.203125 C 32.476562 -2.453125 30.585938 -1.140625 28.609375 -0.265625 C 26.640625 0.609375 24.425781 1.046875 21.96875 1.046875 Z M 23.78125 -8.09375 C 25.820312 -8.09375 27.679688 -8.582031 29.359375 -9.5625 C 31.035156 -10.539062 32.347656 -11.941406 33.296875 -13.765625 C 34.242188 -15.585938 34.71875 -17.675781 34.71875 -20.03125 C 34.71875 -22.320312 34.242188 -24.351562 33.296875 -26.125 C 32.347656 -27.90625 31.046875 -29.28125 29.390625 -30.25 C 27.742188 -31.226562 25.875 -31.71875 23.78125 -31.71875 C 21.625 -31.71875 19.734375 -31.191406 18.109375 -30.140625 C 16.484375 -29.097656 15.234375 -27.6875 14.359375 -25.90625 C 13.484375 -24.132812 13.046875 -22.148438 13.046875 -19.953125 C 13.046875 -17.703125 13.507812 -15.675781 14.4375 -13.875 C 15.363281 -12.070312 16.640625 -10.65625 18.265625 -9.625 C 19.890625 -8.601562 21.726562 -8.09375 23.78125 -8.09375 Z M 23.78125 -8.09375 "/></g></g></g></g></g><g clip-path="url(#3cc75d228d)"><g clip-path="url(#9cf3b18e1c)"><g transform="matrix(1, 0, 0, 1, 138, 25)"><g clip-path="url(#5eb3c74def)"><g clip-path="url(#461546c594)"><g clip-path="url(#f6f164dfe0)"><path fill="#d64238" d="M 0.542969 0.769531 L 18.183594 0.769531 L 18.183594 18.410156 L 0.542969 18.410156 Z M 0.542969 0.769531 " fill-opacity="1" fill-rule="nonzero"/></g></g></g></g></g></g></svg>